<?xml version="1.0" encoding="utf-8"?>
<!-- Generator: Adobe Illustrator 23.1.0, SVG Export Plug-In . SVG Version: 6.00 Build 0)  -->
<svg version="1.1" id="Layer_1" xmlns="http://www.w3.org/2000/svg" xmlns:xlink="http://www.w3.org/1999/xlink" x="0px" y="0px"
	 viewBox="0 0 512 512" style="enable-background:new 0 0 512 512;" xml:space="preserve">
<style type="text/css">
	.st0{fill:#4F4D4D;}
</style>
<g>
	<path class="st0" d="M415,55.6l-133.4,97L505.1,315c4.5-18.9,6.9-38.6,6.9-58.9C512,175,474.1,102.6,415,55.6L415,55.6z"/>
	<path class="st0" d="M389,37.4C350.2,13.8,304.7,0.1,256,0.1c-52.3,0-101,15.8-141.6,42.8l51,156.9L389,37.4z"/>
	<path class="st0" d="M89.1,62.1C34.6,109.1,0,178.7,0,256.1c0,23.8,3.3,46.9,9.4,68.7h165.1L89.1,62.1z"/>
	<path class="st0" d="M19.8,354.9c37.4,89.1,123.8,152.8,225.4,157l51-157H19.8z"/>
	<path class="st0" d="M276.9,511.3c100.6-8.2,185-74.8,219-165.8l-133.6-97.1L276.9,511.3z"/>
</g>
</svg>
